<svg xmlns="http://www.w3.org/2000/svg" xmlns:xlink="http://www.w3.org/1999/xlink" width="62" zoomAndPan="magnify" viewBox="0 0 46.5 46.5" height="62" preserveAspectRatio="xMidYMid meet" version="1.0"><defs><g/><clipPath id="6fbe85a640"><path d="M 0.898438 12 L 43 12 L 43 33 L 0.898438 33 Z M 0.898438 12 " clip-rule="nonzero"/></clipPath><clipPath id="62c781105d"><path d="M 15 1.039062 L 32 1.039062 L 32 15 L 15 15 Z M 15 1.039062 " clip-rule="nonzero"/></clipPath><clipPath id="35e2fae21b"><path d="M 0.597656 1 L 7 1 L 7 8 L 0.597656 8 Z M 0.597656 1 " clip-rule="nonzero"/></clipPath><clipPath id="f0d5bb3f3f"><rect x="0" width="32" y="0" height="11"/></clipPath></defs><path fill="#42bba4" d="M 37.484375 16.796875 C 34.457031 19.800781 29.183594 21.277344 26.535156 21.859375 C 30.015625 20.257812 33.90625 17.46875 37.125 12.652344 C 37.125 12.652344 38.292969 13.976562 37.484375 16.796875 Z M 37.484375 16.796875 " fill-opacity="1" fill-rule="nonzero"/><g clip-path="url(#6fbe85a640)"><path fill="#42bba4" d="M 0.898438 27.734375 C 0.898438 27.734375 4.269531 18.683594 11.5625 17.632812 C 18.859375 16.582031 20.121094 19.597656 28.332031 16.652344 C 28.332031 16.652344 29.734375 21.070312 20.964844 22.191406 C 20.964844 22.191406 20.054688 23.945312 22.789062 23.945312 C 25.527344 23.945312 35.207031 22.722656 41.941406 12.652344 C 41.941406 12.652344 45.097656 16.230469 37.453125 24.15625 C 29.804688 32.085938 20.125 36.15625 0.898438 27.734375 Z M 0.898438 27.734375 " fill-opacity="1" fill-rule="nonzero"/></g><g clip-path="url(#62c781105d)"><path fill="#ff1616" d="M 30.503906 2.429688 C 29.113281 1.039062 26.855469 1.039062 25.464844 2.429688 L 23.589844 4.304688 L 21.714844 2.429688 C 20.320312 1.039062 18.066406 1.039062 16.675781 2.429688 C 15.980469 3.128906 15.632812 4.039062 15.632812 4.949219 C 15.632812 5.863281 15.980469 6.773438 16.675781 7.46875 L 23.589844 14.386719 L 30.503906 7.46875 C 31.894531 6.078125 31.894531 3.820312 30.503906 2.429688 Z M 26.136719 8.828125 L 24.53125 8.828125 L 24.53125 10.433594 L 22.644531 10.433594 L 22.644531 8.828125 L 21.039062 8.828125 L 21.039062 6.941406 L 22.644531 6.941406 L 22.644531 5.339844 L 24.53125 5.339844 L 24.53125 6.941406 L 26.136719 6.941406 Z M 26.136719 8.828125 " fill-opacity="1" fill-rule="nonzero"/></g><g transform="matrix(1, 0, 0, 1, 7, 34)"><g clip-path="url(#f0d5bb3f3f)"><g clip-path="url(#35e2fae21b)"><g fill="#ff1616" fill-opacity="1"><g transform="translate(0.638007, 7.47855)"><g><path d="M 3.703125 -1.265625 C 3.910156 -1.265625 4.113281 -1.296875 4.3125 -1.359375 C 4.507812 -1.421875 4.65625 -1.484375 4.75 -1.546875 L 4.890625 -1.640625 L 5.484375 -0.453125 C 5.460938 -0.429688 5.4375 -0.410156 5.40625 -0.390625 C 5.375 -0.367188 5.296875 -0.320312 5.171875 -0.25 C 5.046875 -0.1875 4.910156 -0.128906 4.765625 -0.078125 C 4.617188 -0.0234375 4.425781 0.015625 4.1875 0.046875 C 3.957031 0.0859375 3.722656 0.109375 3.484375 0.109375 C 2.910156 0.109375 2.367188 -0.0234375 1.859375 -0.296875 C 1.359375 -0.578125 0.953125 -0.960938 0.640625 -1.453125 C 0.328125 -1.941406 0.171875 -2.472656 0.171875 -3.046875 C 0.171875 -3.472656 0.257812 -3.882812 0.4375 -4.28125 C 0.625 -4.675781 0.867188 -5.015625 1.171875 -5.296875 C 1.472656 -5.578125 1.828125 -5.800781 2.234375 -5.96875 C 2.640625 -6.132812 3.054688 -6.21875 3.484375 -6.21875 C 3.878906 -6.21875 4.242188 -6.171875 4.578125 -6.078125 C 4.910156 -5.984375 5.144531 -5.890625 5.28125 -5.796875 L 5.484375 -5.65625 L 4.890625 -4.46875 C 4.859375 -4.5 4.804688 -4.535156 4.734375 -4.578125 C 4.671875 -4.617188 4.535156 -4.671875 4.328125 -4.734375 C 4.117188 -4.804688 3.910156 -4.84375 3.703125 -4.84375 C 3.359375 -4.84375 3.050781 -4.789062 2.78125 -4.6875 C 2.519531 -4.582031 2.3125 -4.4375 2.15625 -4.25 C 2 -4.070312 1.878906 -3.878906 1.796875 -3.671875 C 1.722656 -3.472656 1.6875 -3.269531 1.6875 -3.0625 C 1.6875 -2.59375 1.859375 -2.175781 2.203125 -1.8125 C 2.546875 -1.445312 3.046875 -1.265625 3.703125 -1.265625 Z M 3.703125 -1.265625 "/></g></g></g></g><g fill="#ff1616" fill-opacity="1"><g transform="translate(6.21825, 7.47855)"><g><path d="M 1.84375 -6.109375 L 1.84375 -1.21875 L 3.9375 -1.21875 L 3.9375 0 L 0.4375 0 L 0.4375 -6.109375 Z M 1.84375 -6.109375 "/></g></g></g><g fill="#ff1616" fill-opacity="1"><g transform="translate(10.405284, 7.47855)"><g><path d="M 1.84375 -6.109375 L 1.84375 0 L 0.4375 0 L 0.4375 -6.109375 Z M 1.84375 -6.109375 "/></g></g></g><g fill="#ff1616" fill-opacity="1"><g transform="translate(12.687773, 7.47855)"><g><path d="M 1.84375 -3.796875 L 1.84375 0 L 0.4375 0 L 0.4375 -6.109375 L 1.84375 -6.109375 L 4.265625 -2.3125 L 4.28125 -2.3125 L 4.28125 -6.109375 L 5.671875 -6.109375 L 5.671875 0 L 4.28125 0 Z M 1.84375 -3.796875 "/></g></g></g><g fill="#ff1616" fill-opacity="1"><g transform="translate(18.808995, 7.47855)"><g><path d="M 1.84375 -6.109375 L 1.84375 0 L 0.4375 0 L 0.4375 -6.109375 Z M 1.84375 -6.109375 "/></g></g></g><g fill="#ff1616" fill-opacity="1"><g transform="translate(21.091484, 7.47855)"><g><path d="M 3.703125 -1.265625 C 3.910156 -1.265625 4.113281 -1.296875 4.3125 -1.359375 C 4.507812 -1.421875 4.65625 -1.484375 4.75 -1.546875 L 4.890625 -1.640625 L 5.484375 -0.453125 C 5.460938 -0.429688 5.4375 -0.410156 5.40625 -0.390625 C 5.375 -0.367188 5.296875 -0.320312 5.171875 -0.25 C 5.046875 -0.1875 4.910156 -0.128906 4.765625 -0.078125 C 4.617188 -0.0234375 4.425781 0.015625 4.1875 0.046875 C 3.957031 0.0859375 3.722656 0.109375 3.484375 0.109375 C 2.910156 0.109375 2.367188 -0.0234375 1.859375 -0.296875 C 1.359375 -0.578125 0.953125 -0.960938 0.640625 -1.453125 C 0.328125 -1.941406 0.171875 -2.472656 0.171875 -3.046875 C 0.171875 -3.472656 0.257812 -3.882812 0.4375 -4.28125 C 0.625 -4.675781 0.867188 -5.015625 1.171875 -5.296875 C 1.472656 -5.578125 1.828125 -5.800781 2.234375 -5.96875 C 2.640625 -6.132812 3.054688 -6.21875 3.484375 -6.21875 C 3.878906 -6.21875 4.242188 -6.171875 4.578125 -6.078125 C 4.910156 -5.984375 5.144531 -5.890625 5.28125 -5.796875 L 5.484375 -5.65625 L 4.890625 -4.46875 C 4.859375 -4.5 4.804688 -4.535156 4.734375 -4.578125 C 4.671875 -4.617188 4.535156 -4.671875 4.328125 -4.734375 C 4.117188 -4.804688 3.910156 -4.84375 3.703125 -4.84375 C 3.359375 -4.84375 3.050781 -4.789062 2.78125 -4.6875 C 2.519531 -4.582031 2.3125 -4.4375 2.15625 -4.25 C 2 -4.070312 1.878906 -3.878906 1.796875 -3.671875 C 1.722656 -3.472656 1.6875 -3.269531 1.6875 -3.0625 C 1.6875 -2.59375 1.859375 -2.175781 2.203125 -1.8125 C 2.546875 -1.445312 3.046875 -1.265625 3.703125 -1.265625 Z M 3.703125 -1.265625 "/></g></g></g><g fill="#ff1616" fill-opacity="1"><g transform="translate(26.671727, 7.47855)"><g><path d="M 2.90625 -1.171875 L 1.78125 -1.171875 L 1.78125 -2.5 L 0.4375 -2.5 L 0.4375 -3.640625 L 1.78125 -3.640625 L 1.78125 -4.96875 L 2.90625 -4.96875 L 2.90625 -3.640625 L 4.25 -3.640625 L 4.25 -2.5 L 2.90625 -2.5 Z M 2.90625 -1.171875 "/></g></g></g></g></g></svg>